# xmcd
#
# Track frame offsets: 
#        150
#        14797
#        23882
#        46160
#        72630
#        87467
#        108977
#        123265
#        139607
#        162110
#        175155
#        192025
#        210410
#
# Disc length: 2983 seconds
#
# Revision: 0
# Processed by: cddbd v1.5.2PL0 Copyright (c) Steve Scherf et al.
# Submitted via: ExactAudioCopy v0.95a5
#
DISCID=ae0ba50d
DTITLE=Pete Mayes - Crazy Woman
DYEAR=1992
DGENRE=Blues
TTITLE0=Crazy Woman
TTITLE1=Moving Out
TTITLE2=Christmas Holidays
TTITLE3=West Coast Blues
TTITLE4=Crazy Woman - Alternate Version
TTITLE5=Something On Your Mind
TTITLE6=I'm Ready
TTITLE7=Honeysucker
TTITLE8=The Word Is Out
TTITLE9=Texas Jump
TTITLE10=Locked Out
TTITLE11=Back In School
TTITLE12=Low Down Feeling
EXTD=
EXTT0=
EXTT1=
EXTT2=
EXTT3=
EXTT4=
EXTT5=
EXTT6=
EXTT7=
EXTT8=
EXTT9=
EXTT10=
EXTT11=
EXTT12=
PLAYORDER=
